<?xml version="1.0" encoding="UTF-8"?> <svg xmlns="http://www.w3.org/2000/svg" width="507" height="244" viewBox="0 0 507 244" fill="none"><path d="M84.3682 184.701C84.3682 184.301 84.2682 184.001 84.2682 183.701C84.2682 175.901 84.2682 168.001 84.2682 160.201C84.2682 159.301 84.4682 158.901 85.4682 158.901C105.068 158.901 124.568 158.901 144.168 158.901C145.268 158.901 145.468 159.201 145.468 160.201C145.468 178.501 145.468 196.901 145.468 215.201C145.468 216.001 145.268 216.601 144.668 217.201C133.168 229.001 119.468 236.801 103.568 240.701C98.4682 241.901 93.3682 242.601 88.1682 242.801C73.5682 243.501 59.6682 240.701 46.6682 234.001C23.2682 222.001 8.46818 203.101 2.16818 177.501C0.268177 169.601 -0.331823 161.601 0.168177 153.601C1.36818 135.401 7.66818 119.301 19.3682 105.201C29.9682 92.5006 43.1682 83.6006 58.8682 78.6006C64.0682 76.9006 69.4682 75.8006 74.8682 75.3006C77.4682 75.1006 80.0682 74.9006 82.6682 74.7006C83.9682 74.6006 83.9682 74.7006 83.9682 76.0006C83.9682 95.6006 83.9682 115.201 83.9682 134.801C83.9682 135.501 83.9682 136.201 83.9682 136.801C84.0682 137.601 83.6682 137.801 82.9682 137.801C77.3682 138.001 71.8682 139.001 66.6682 141.101C51.4682 147.401 41.9682 158.601 37.8682 174.501C36.7682 179.001 36.3682 183.701 36.7682 188.301C37.6682 200.601 42.5682 211.101 51.5682 219.701C58.1682 226.001 65.9682 230.101 74.9682 231.701C91.7682 234.701 106.368 230.201 118.368 218.101C122.668 213.801 124.668 208.301 124.868 202.201C125.168 191.101 117.368 181.201 106.668 178.701C98.5682 176.801 91.4682 178.801 85.1682 184.101C84.8682 184.301 84.6682 184.501 84.3682 184.701Z" fill="#757575"></path><path d="M474.068 217.901C474.668 214.901 475.168 211.901 475.768 208.901C477.268 201.001 478.668 193.101 480.168 185.301C481.668 177.101 483.168 168.901 484.668 160.701C484.768 160.401 484.868 160.101 484.868 159.801C484.868 159.101 485.268 159.001 485.868 159.001C492.568 159.001 499.168 159.001 505.868 159.001C506.668 159.001 506.768 159.401 506.768 160.001C506.768 165.301 506.768 170.601 506.768 176.001C506.768 197.901 506.768 219.801 506.768 241.601C506.768 243.101 506.768 243.101 505.268 243.101C500.668 243.101 495.968 243.101 491.368 243.101C490.468 243.101 490.168 242.801 490.168 241.901C490.168 225.201 490.168 208.401 490.168 191.701C490.168 191.201 489.868 190.701 489.768 190.201C489.568 190.701 489.168 191.101 489.068 191.601C487.868 198.501 486.768 205.401 485.668 212.201C484.568 218.901 483.468 225.701 482.368 232.501C481.868 235.701 481.268 239.001 480.768 242.201C480.668 242.801 480.368 243.001 479.768 243.001C475.968 243.001 472.068 243.001 468.268 243.001C467.568 243.001 467.368 242.701 467.168 242.101C465.368 231.001 463.568 219.901 461.768 208.801C460.768 202.901 459.868 196.901 458.868 191.001C458.768 190.701 458.468 190.401 458.268 190.101C458.068 190.401 457.868 190.701 457.768 191.101C457.668 192.601 457.768 194.101 457.768 195.601C457.768 210.901 457.768 226.201 457.768 241.401C457.768 242.901 457.768 242.901 456.268 242.901C451.668 242.901 447.068 242.901 442.468 242.901C441.468 242.901 441.268 242.601 441.268 241.701C441.268 214.501 441.268 187.201 441.268 160.001C441.268 159.101 441.468 158.801 442.468 158.801C448.868 158.801 455.268 158.801 461.668 158.801C462.668 158.801 462.968 159.101 463.168 160.001C464.268 166.301 465.468 172.501 466.668 178.801C468.268 187.401 469.868 196.101 471.468 204.701C472.268 208.801 472.968 212.901 473.768 217.001C473.868 217.301 473.868 217.501 473.968 217.801C473.868 217.901 473.968 217.901 474.068 217.901Z" fill="#757575"></path><path d="M114.768 153.4C83.4682 109.7 82.2682 46.5 114.568 0C130.868 23.4 138.668 49.6 138.568 77.9C138.468 105.3 130.268 130.5 114.768 153.4ZM114.568 37.1C125.768 58.3 131.168 80.9 130.468 104.9C134.268 89.6 134.868 63 126.668 38.3C123.568 29 119.568 20.1 114.468 11.7C108.968 21.1 104.968 31.1 101.768 41.4C98.5682 51.7 96.7682 62.3 96.2682 73.2C95.7682 83.9 96.6682 94.6 98.5682 105.2C98.1682 81.1 103.368 58.4 114.568 37.1ZM114.668 147.9C120.368 137 122.568 125.6 121.068 113.4C120.168 106 118.368 98.9 114.768 92.2C111.668 95.8 107.668 109.9 107.568 118C107.568 128.5 109.568 138.5 114.668 147.9Z" fill="#757575"></path><path d="M312.868 169.298C311.068 169.298 309.468 169.298 307.768 169.298C307.568 169.298 307.268 169.698 307.268 169.898C307.168 170.198 307.268 170.598 307.268 170.898C307.268 194.498 307.268 217.998 307.268 241.598C307.268 242.998 307.268 242.998 305.868 242.998C301.168 242.998 296.468 242.998 291.868 242.998C290.968 242.998 290.768 242.798 290.768 241.898C290.768 214.598 290.768 187.298 290.768 159.998C290.768 159.198 290.968 158.898 291.868 158.898C304.068 158.898 316.268 158.898 328.568 158.898C329.468 158.898 329.668 159.198 329.668 160.098C329.668 187.398 329.668 214.598 329.668 241.898C329.668 242.898 329.368 243.098 328.468 243.098C323.768 243.098 319.068 243.098 314.368 243.098C313.368 243.098 313.068 242.798 313.068 241.798C313.068 218.198 313.068 194.598 313.068 170.998C312.868 170.498 312.868 169.998 312.868 169.298Z" fill="#757575"></path><path d="M391.068 201C391.068 191 390.968 181 391.068 171C391.068 169.2 391.468 167.4 392.068 165.7C393.568 161.6 396.668 159.4 400.968 159.2C406.668 158.9 412.368 159 418.068 159C419.268 159 420.368 159.2 421.568 159.5C426.168 160.6 428.468 163.8 429.268 168.2C429.568 169.6 429.668 171.1 429.668 172.5C429.668 191.7 429.668 210.9 429.668 230.2C429.668 232.3 429.168 234.4 428.568 236.4C427.268 240.2 424.368 242.3 420.368 242.8C419.268 243 418.068 243 416.968 243C411.968 243 406.968 243.1 402.068 243C397.768 242.9 394.168 241.2 392.468 237C391.768 235.2 391.168 233.1 391.168 231.2C390.968 221.1 391.068 211.1 391.068 201ZM413.068 200.9C413.068 191.3 413.068 181.7 413.068 172.1C413.068 170.6 412.068 169.4 410.668 169.3C408.968 169.1 407.868 169.9 407.568 171.6C407.468 172.1 407.468 172.7 407.468 173.2C407.468 191.6 407.468 210.1 407.468 228.5C407.468 228.9 407.468 229.3 407.468 229.7C407.568 230.8 407.968 231.7 409.068 232.2C410.968 233.1 413.068 231.7 413.068 229.4C413.068 219.9 413.068 210.4 413.068 200.9Z" fill="#757575"></path><path d="M224.768 243C222.368 243 219.968 243 217.568 243C216.868 243 216.668 242.8 216.568 242.1C216.168 236.2 215.768 230.2 215.368 224.3C215.268 223.4 215.268 222.5 215.168 221.6C215.168 220.9 214.868 220.6 214.168 220.6C211.968 220.6 209.868 220.6 207.668 220.6C207.068 220.6 206.768 220.9 206.768 221.5C206.468 225.8 206.268 230 205.968 234.3C205.768 237 205.568 239.7 205.368 242.3C205.368 242.6 204.868 243 204.668 243C199.768 243 194.868 243 189.968 243C189.268 243 189.168 242.6 189.268 242.1C189.468 240 189.768 237.8 189.968 235.7C190.268 232.8 190.568 229.9 190.868 227C191.168 224 191.468 221.1 191.768 218.1C192.068 215.3 192.368 212.4 192.668 209.6C193.068 206 193.468 202.3 193.768 198.7C194.168 195.1 194.468 191.6 194.868 188C195.268 184.5 195.668 180.9 195.968 177.4C196.268 174.5 196.568 171.7 196.868 168.8C197.168 165.8 197.568 162.8 197.868 159.8C197.968 159.1 198.268 159 198.868 159C206.968 159 215.168 159 223.268 159C223.968 159 224.168 159.2 224.268 159.9C224.768 165.1 225.368 170.2 225.868 175.4C226.468 180.9 227.068 186.3 227.668 191.8C228.068 196 228.468 200.2 228.968 204.4C229.468 209.2 230.068 214.1 230.568 218.9C231.068 223.7 231.568 228.6 232.068 233.4C232.368 236.3 232.668 239.1 233.068 242C233.168 242.7 232.968 243 232.168 243C229.568 243 227.168 243 224.768 243ZM214.568 211.7C213.568 197.5 212.668 183.4 211.668 169.5C210.668 169.1 210.368 169.5 210.268 170.3C210.168 171.7 210.068 173.2 209.968 174.6C209.868 176.9 209.668 179.2 209.568 181.4C209.268 185 209.068 188.6 208.768 192.2C208.568 194.5 208.468 196.8 208.368 199C208.068 203 207.768 207 207.568 211C207.568 211.2 207.868 211.7 208.068 211.7C210.168 211.7 212.168 211.7 214.568 211.7Z" fill="#757575"></path><path d="M262.668 219.4C262.668 216.5 262.568 213.6 262.668 210.7C262.768 205.7 260.568 204.5 256.368 204.3C254.268 204.2 252.168 204.2 250.068 204.3C249.268 204.3 248.968 204.1 248.968 203.3C248.968 201 248.968 198.7 248.968 196.3C248.968 195.6 249.268 195.3 249.968 195.3C252.068 195.3 254.168 195.3 256.368 195.3C257.168 195.3 258.068 195.2 258.868 195.1C260.868 194.7 261.968 193.6 262.368 191.6C262.468 190.9 262.568 190.1 262.568 189.4C262.568 183.8 262.568 178.2 262.568 172.5C262.568 170.5 261.468 169.3 259.668 169.3C257.968 169.3 256.968 170.3 256.968 172C256.968 176.1 256.968 180.3 256.968 184.4C256.968 185.4 256.768 185.7 255.668 185.7C250.968 185.6 246.268 185.7 241.668 185.7C240.668 185.7 240.368 185.5 240.368 184.4C240.468 180.3 240.368 176.2 240.468 172.1C240.468 169.7 240.868 167.4 241.768 165.2C243.368 161.5 246.268 159.4 250.168 159.2C255.968 158.9 261.768 159 267.668 159C269.068 159 270.368 159.3 271.768 159.7C276.268 161.1 278.468 164.5 278.868 168.9C279.268 173.7 279.268 178.6 279.268 183.4C279.268 185.8 279.268 188.3 278.868 190.7C278.168 195.1 274.668 198.1 270.268 198.5C269.668 198.6 269.068 198.6 268.468 198.7C268.168 198.8 267.968 199 267.768 199.2C267.968 199.4 268.168 199.7 268.368 199.8C269.368 199.9 270.468 199.9 271.468 200.1C275.768 200.8 278.868 204.1 278.968 208.5C279.168 215.4 279.268 222.2 279.168 229.1C279.168 231.4 278.668 233.9 278.068 236.1C276.868 240.1 273.868 242.2 269.768 242.8C268.168 243 266.468 243 264.868 243C260.468 243 256.068 243.1 251.668 242.9C249.968 242.8 248.168 242.4 246.568 241.7C243.168 240.2 241.568 237.2 240.968 233.7C240.668 232.1 240.568 230.4 240.568 228.8C240.468 224.2 240.568 219.6 240.568 215C240.568 214.2 240.768 213.8 241.668 213.8C246.468 213.8 251.268 213.8 256.068 213.8C256.868 213.8 257.168 214 257.168 214.9C257.168 219.7 257.168 224.5 257.168 229.2C257.168 231.2 258.168 232.4 259.868 232.4C261.568 232.4 262.768 231.1 262.768 229.2C262.768 226 262.668 222.7 262.668 219.4Z" fill="#757575"></path><path d="M340.768 201C340.768 187.5 340.768 173.9 340.768 160.4C340.768 159 340.768 159 342.168 159C350.568 159 358.868 159 367.268 159C368.868 159 370.468 159.2 372.068 159.7C376.468 161 378.468 164.2 379.168 168.5C379.468 170.1 379.568 171.8 379.568 173.4C379.568 182.6 379.668 191.8 379.568 201.1C379.568 203.3 379.068 205.6 378.368 207.7C377.068 211.6 374.168 213.8 370.168 214.2C366.568 214.5 362.868 214.4 359.168 214.5C357.368 214.5 357.368 214.5 357.368 216.3C357.368 224.8 357.368 233.4 357.368 241.9C357.368 242.9 357.168 243.2 356.168 243.2C351.468 243.2 346.668 243.2 341.968 243.2C340.968 243.2 340.768 242.9 340.768 242C340.768 228.2 340.768 214.6 340.768 201ZM357.368 187.2C357.368 191.9 357.368 196.7 357.368 201.4C357.368 202.4 357.368 203.5 357.368 204.5C357.368 204.8 357.568 205.2 357.768 205.3C360.068 206 362.168 204.8 362.768 202.5C362.868 202 362.968 201.4 362.968 200.9C362.968 191.8 362.968 182.7 362.968 173.5C362.968 170.3 361.768 169.2 358.568 169.1C357.568 169.1 357.268 169.3 357.268 170.3C357.368 176.1 357.368 181.7 357.368 187.2Z" fill="#757575"></path><path d="M156.568 200.9C156.568 187.4 156.568 173.9 156.568 160.4C156.568 159 156.568 159 158.068 159C167.768 159 177.568 159 187.268 159C188.268 159 188.568 159.3 188.468 160.2C188.368 162.8 188.368 165.5 188.468 168.1C188.468 169 188.168 169.3 187.268 169.3C183.068 169.3 178.868 169.3 174.668 169.3C173.068 169.3 173.068 169.3 173.068 170.8C173.068 194.3 173.068 217.8 173.068 241.3C173.068 243.4 173.268 243.1 171.168 243.1C166.768 243.1 162.268 243.1 157.868 243.1C156.568 243.1 156.568 243.1 156.568 241.7C156.568 228.1 156.568 214.5 156.568 200.9Z" fill="#757575"></path></svg> 